<?xml version="1.0" encoding="utf-8"?>
<!-- Generated by IcoMoon.io -->
<!DOCTYPE svg PUBLIC "-//W3C//DTD SVG 1.1//EN" "http://www.w3.org/Graphics/SVG/1.1/DTD/svg11.dtd">
<svg version="1.1" xmlns="http://www.w3.org/2000/svg" xmlns:xlink="http://www.w3.org/1999/xlink" width="512" height="512" viewBox="0 0 512 512">
<g>
</g>
	<path d="M283.854 314.663l-124.397-89.38 22.101-30.761 124.397 89.381-22.101 30.76z" fill="#000000" />
	<path d="M356.953 160.038l-113.209 159.797-30.909-21.897 113.209-159.797 30.909 21.897z" fill="#000000" />
	<path d="M256 33.669c-122.583 0-222.321 99.737-222.321 222.321 0 122.614 99.737 222.351 222.321 222.351 122.603 0 222.321-99.738 222.321-222.351 0-122.583-99.717-222.321-222.321-222.321zM256.010 39.281c11.008 0 19.927 8.93 19.927 19.958 0 11.018-8.919 19.948-19.927 19.948-11.008 0-19.947-8.93-19.947-19.948 0-11.029 8.94-19.958 19.947-19.958zM256 431.022c-96.522 0-175.022-78.521-175.022-175.032 0-96.502 78.5-175.022 175.022-175.022 96.522 0 175.022 78.52 175.022 175.022 0 96.512-78.5 175.032-175.022 175.032z" fill="#000000" />
</svg>
