<?xml version="1.0" encoding="utf-8"?>
<!-- Generator: Adobe Illustrator 16.0.0, SVG Export Plug-In . SVG Version: 6.00 Build 0)  -->
<!DOCTYPE svg PUBLIC "-//W3C//DTD SVG 1.1//EN" "http://www.w3.org/Graphics/SVG/1.1/DTD/svg11.dtd">
<svg version="1.1" id="Layer_1" xmlns="http://www.w3.org/2000/svg" xmlns:xlink="http://www.w3.org/1999/xlink" x="0px" y="0px"
	 width="512px" height="512px" viewBox="0 0 512 512" enable-background="new 0 0 512 512" xml:space="preserve">
<g>
	<path d="M168,288c54.125,0,98-50.156,98-112S222.125,64,168,64s-98,50.156-98,112S113.875,288,168,288z M114.375,145.484
		C121.125,163.063,142.438,176,168,176s46.906-12.938,53.625-30.516C231.688,157.609,238,173,238,190c0,38.656-31.344,70-70,70
		c-38.625,0-70-31.344-70-70C98,173,104.313,157.609,114.375,145.484z"/>
	<path d="M252,316h-28l-56,112l-56-112H84c-46.406,0-84,37.594-84,84v84c0,15.469,12.531,28,28,28h280c15.469,0,28-12.531,28-28v-84
		C336,353.594,298.406,316,252,316z"/>
	<path d="M274.563,93.922c7.031-10.406,15.938-19.469,26.781-25.906c7.844,16.922,23.875,34.203,45.938,46.953
		c28.938,16.688,59.625,20.813,79.5,12.844c0.625,4.016,1.219,8,1.219,12.188c0,40.609-28.781,74.453-67.031,82.297
		C414.719,214.078,456,168.063,456,112C456,50.156,405.844,0,344,0c-43.219,0-80.313,24.766-98.969,60.641
		C256.375,69.969,266.469,81.063,274.563,93.922z"/>
	<path d="M428,252h-14c0,38.656-31.344,70-70,70c-2.5,0-4.906-0.469-7.344-0.75C355.969,341.969,368,369.531,368,400v48h116
		c15.469,0,28-12.531,28-28v-84C512,289.594,474.438,252,428,252z"/>
</g>
</svg>
