<?xml version="1.0" encoding="utf-8"?>
<!-- Generator: Adobe Illustrator 25.4.1, SVG Export Plug-In . SVG Version: 6.00 Build 0)  -->
<svg version="1.1" id="Layer_1" xmlns="http://www.w3.org/2000/svg" xmlns:xlink="http://www.w3.org/1999/xlink" x="0px" y="0px"
	 viewBox="0 0 700 700" style="enable-background:new 0 0 700 700;" xml:space="preserve">
<path d="M348.5,0c-4.2,0.2-8.2,2.1-11,5.2c-2.8,3.1-4.3,7.3-4.1,11.5c0.2,4.2,2.1,8.2,5.2,11c3.1,2.8,7.2,4.3,11.5,4.1
	c175.9,0,318.2,142.3,318.2,318.2S525.9,668.2,350,668.2S31.8,525.9,31.8,350c0-155.2,110.8-284.2,257.5-312.5
	c4.5-0.4,8.6-2.6,11.4-6.2c2.7-3.6,3.8-8.2,2.9-12.6c-0.8-4.4-3.5-8.3-7.4-10.6c-3.9-2.3-8.5-2.9-12.9-1.6C121.9,37.6,0,179.7,0,350
	c0,193.1,156.9,350,350,350s350-156.9,350-350S543.1,0,350,0C349.5,0,349,0,348.5,0L348.5,0z M533.9,261.3c-4.6,0.1-9,2.2-11.9,5.7
	L350,431.5L178,267c-3-3.1-7.1-4.8-11.4-4.7c-6.5,0.1-12.2,4.2-14.5,10.3c-2.3,6.1-0.7,12.9,4.1,17.3l183,175
	c6.1,5.8,15.7,5.8,21.9,0l183-175c5.5-4.2,7.7-11.4,5.4-17.9C547,265.4,540.8,261.1,533.9,261.3L533.9,261.3z"/>
</svg>
