<?xml version="1.0" encoding="utf-8"?>
<!-- Generated by IcoMoon.io -->
<!DOCTYPE svg PUBLIC "-//W3C//DTD SVG 1.1//EN" "http://www.w3.org/Graphics/SVG/1.1/DTD/svg11.dtd">
<svg version="1.1" xmlns="http://www.w3.org/2000/svg" xmlns:xlink="http://www.w3.org/1999/xlink" width="512" height="512" viewBox="0 0 512 512">
<g>
</g>
	<path d="M35.082 130.621h441.846c10.567 0 19.015 8.684 19.015 19.016v82.637c-0.697 0-1.403 0-2.11 0-12.902 0-23.235 10.558-23.235 23.696 0 13.158 10.332 23.982 23.235 23.982 0.707 0 1.413-0.256 2.11-0.256v82.637c0 10.342-8.448 19.036-19.015 19.036h-441.846c-10.332 0-19.026-8.704-19.026-19.036v-82.637c0.706 0 1.413 0.256 2.099 0.256 12.923 0 23.245-10.824 23.245-23.982 0-13.138-10.322-23.696-23.245-23.696-0.686 0-1.393 0-2.099 0v-82.637c-0.010-10.332 8.694-19.016 19.026-19.016v0zM78.725 155.505c-8.222 0-15.268 6.82-15.268 15.237v66.243c0.717 0 1.198 0 1.884 0 10.107 0 18.565 8.438 18.565 18.995s-8.458 19.261-18.565 19.261c-0.676 0-1.157-0.236-1.884-0.236v66.222c0 8.458 7.045 15.524 15.268 15.524h354.539c8.448 0 15.257-7.055 15.257-15.524v-66.222c-0.461 0-1.178 0.236-1.659 0.236-10.312 0-18.78-8.704-18.78-19.262s8.469-18.995 18.78-18.995c0.481 0 1.198 0 1.659 0v-66.243c0-8.417-6.81-15.237-15.257-15.237h-354.539z" fill="#000000" />
	<path d="M112.784 174.756h286.454c6.81 0 12.431 5.622 12.431 12.441v53.545c-0.481 0-0.932-0.236-1.413-0.236-8.438 0-15.248 7.045-15.248 15.483 0 8.458 6.81 15.524 15.248 15.524 0.481 0 0.932 0 1.413 0v53.524c0 6.8-5.622 12.196-12.432 12.196h-286.454c-6.82 0-12.196-5.397-12.196-12.196v-53.524c0.451 0 0.942 0 1.403 0 8.213 0 15.043-7.055 15.043-15.524 0-8.438-6.83-15.483-15.043-15.483-0.461 0-0.953 0.236-1.403 0.236v-53.545c-0.010-6.82 5.376-12.441 12.196-12.441v0zM251.792 208.097l-9.4 27.197h-30.31l24.648 16.937-9.38 27.218 24.443-16.896 24.412 16.896-9.401-27.218 24.668-16.937h-30.31l-9.369-27.197zM155.28 208.097l-9.175 27.197h-30.279l24.422 16.937-9.38 27.218 24.412-16.896 24.412 16.896-9.39-27.218 24.658-16.937h-30.279l-9.4-27.197zM348.498 208.097l-9.37 27.197h-30.3l24.412 16.937-9.39 27.218 24.647-16.896 24.412 16.896-9.37-27.218 24.412-16.937h-30.279l-9.175-27.197z" fill="#000000" />
</svg>
